<svg width="30" height="28" viewBox="0 0 30 28" fill="none" xmlns="http://www.w3.org/2000/svg">
<path fill-rule="evenodd" clip-rule="evenodd" d="M8.27726 0.407227H26.6111C28.2954 0.407227 29.6668 1.79381 29.6668 3.49666V17.0893C29.6668 18.7922 28.2954 20.1788 26.6111 20.1788H8.27726C6.59319 20.1788 5.22171 18.7922 5.22171 17.0893V3.49666C5.22171 1.79381 6.59319 0.407227 8.27726 0.407227ZM26.6111 2.87873H8.27726C7.94004 2.87873 7.66629 3.15543 7.66629 3.4966V15.1605L11.0397 11.751C11.8745 10.9059 13.2349 10.9059 14.0708 11.751L15.5497 13.2426L20.0893 7.73391C20.495 7.24202 21.089 6.95784 21.7221 6.95425C22.3589 6.96891 22.9517 7.22847 23.3613 7.71404L27.2223 12.2689V3.49666C27.2223 3.15549 26.9486 2.87873 26.6111 2.87873ZM3.64264 18.8798C4.2747 20.7655 6.01515 22.0321 7.97182 22.0321H25.7153L24.6142 25.5723C24.3024 26.776 23.1901 27.5928 21.9728 27.5928C21.7353 27.5926 21.4987 27.5619 21.2688 27.5014L2.36896 22.3842C0.910902 21.9776 0.0418805 20.4517 0.423224 18.9798L3.38837 8.97299V17.3982C3.38837 17.8184 3.45082 18.2383 3.5999 18.7377L3.64264 18.8798ZM13.7774 6.58566C13.7774 7.94866 12.6813 9.05715 11.3331 9.05715C9.98493 9.05715 8.88851 7.94861 8.88851 6.58566C8.88851 5.2227 9.98487 4.11416 11.3331 4.11416C12.6813 4.11416 13.7774 5.22265 13.7774 6.58566Z" fill="#A3A3A3"/>
</svg>
