<svg width="20" height="20" viewBox="0 0 20 20" fill="none" xmlns="http://www.w3.org/2000/svg">
<g clip-path="url(#clip0_680_1259)">
<path fill-rule="evenodd" clip-rule="evenodd" d="M13.0525 3.14451C11.5752 2.48627 9.92468 2.3232 8.34712 2.67962C6.76957 3.03605 5.3495 3.89288 4.29869 5.12232C3.24789 6.35176 2.62265 7.88794 2.51624 9.50175C2.40982 11.1156 2.82793 12.7205 3.7082 14.0773C4.58847 15.4341 5.88374 16.47 7.40083 17.0305C8.91792 17.5909 10.5756 17.646 12.1265 17.1874C13.6774 16.7289 15.0386 15.7812 16.007 14.4859C16.9754 13.1905 17.4991 11.6168 17.5 9.99951V9.23332C17.5 8.77309 17.8731 8.39999 18.3333 8.39999C18.7936 8.39999 19.1667 8.77309 19.1667 9.23332V9.99999C19.1655 11.9767 18.5254 13.9006 17.3419 15.4838C16.1583 17.067 14.4947 18.2252 12.5991 18.7857C10.7035 19.3462 8.67747 19.2789 6.82324 18.5938C4.96902 17.9088 3.38591 16.6427 2.31003 14.9844C1.23414 13.3262 0.723122 11.3645 0.853183 9.39209C0.983245 7.41965 1.74742 5.5421 3.03174 4.03945C4.31605 2.5368 6.0517 1.48957 7.97982 1.05393C9.90794 0.6183 11.9252 0.817608 13.7308 1.62213C14.1512 1.80945 14.3402 2.3021 14.1528 2.72249C13.9655 3.14288 13.4729 3.33183 13.0525 3.14451Z" fill="#231F20"/>
<path fill-rule="evenodd" clip-rule="evenodd" d="M18.9223 2.74378C19.2479 3.06906 19.2482 3.59669 18.9229 3.92229L10.5896 12.264C10.4333 12.4204 10.2213 12.5083 10.0002 12.5083C9.77914 12.5084 9.5671 12.4206 9.41076 12.2643L6.91076 9.76426C6.58533 9.43882 6.58533 8.91118 6.91076 8.58574C7.2362 8.26031 7.76384 8.26031 8.08928 8.58574L9.99973 10.4962L17.7438 2.74437C18.0691 2.41877 18.5967 2.41851 18.9223 2.74378Z" fill="#231F20"/>
</g>
<defs>
<clipPath id="clip0_680_1259">
<rect width="20" height="20" fill="white"/>
</clipPath>
</defs>
</svg>
