<svg width="12" height="15" viewBox="0 0 12 15" fill="none" xmlns="http://www.w3.org/2000/svg">
<path d="M0.666504 14.6666C0.666504 11.7211 3.05432 9.33329 5.99984 9.33329C8.94537 9.33329 11.3332 11.7211 11.3332 14.6666H9.99984C9.99984 12.4575 8.20897 10.6666 5.99984 10.6666C3.7907 10.6666 1.99984 12.4575 1.99984 14.6666H0.666504ZM5.99984 8.66663C3.78984 8.66663 1.99984 6.87663 1.99984 4.66663C1.99984 2.45663 3.78984 0.666626 5.99984 0.666626C8.20984 0.666626 9.99984 2.45663 9.99984 4.66663C9.99984 6.87663 8.20984 8.66663 5.99984 8.66663ZM5.99984 7.33329C7.47317 7.33329 8.6665 6.13996 8.6665 4.66663C8.6665 3.19329 7.47317 1.99996 5.99984 1.99996C4.5265 1.99996 3.33317 3.19329 3.33317 4.66663C3.33317 6.13996 4.5265 7.33329 5.99984 7.33329Z" fill="#64748B"/>
</svg>
